<svg width="40" height="41" viewBox="0 0 40 41" fill="none" xmlns="http://www.w3.org/2000/svg">
<g clip-path="url(#clip0_4_104)">
<path d="M19.9967 0.784302C8.94334 0.784302 2.54344e-06 9.7293 2.54344e-06 20.7843C-0.0017505 23.4112 0.514368 26.0127 1.51884 28.44C2.52331 30.8673 3.99644 33.0728 5.85396 34.9304C7.71148 36.7879 9.91696 38.261 12.3443 39.2655C14.7716 40.2699 17.3731 40.7861 20 40.7843C31.055 40.7843 40 31.8393 40 20.7843C39.9983 9.7293 30.98 0.784302 19.9967 0.784302ZM10.6167 25.076C11.27 25.9476 12.1433 26.3126 13.3783 26.3126C13.9617 26.3126 14.5433 26.2393 15.0517 26.021C15.5617 25.8043 16.1433 25.511 16.8683 25.076L18.9067 27.9843C17.235 29.3676 15.3433 30.021 13.1617 30.021C11.415 30.021 9.96167 29.6576 8.65334 28.931C7.38321 28.1817 6.36895 27.0664 5.74334 25.731C5.09 24.3476 4.725 22.7476 4.725 20.856C4.725 19.0393 5.09 17.366 5.74167 15.9843C6.36389 14.6078 7.37699 13.4446 8.655 12.6393C9.89 11.8393 11.4167 11.476 13.09 11.476C14.255 11.476 15.345 11.621 16.2183 11.9843C17.1981 12.3636 18.1074 12.9044 18.9083 13.5843L16.8717 16.3476C16.3546 15.9659 15.7933 15.648 15.2 15.401C14.6917 15.1843 14.0367 15.111 13.4533 15.111C10.9817 15.111 9.745 17.001 9.745 20.8543C9.67334 22.821 10.0367 24.201 10.6183 25.0743H10.6167V25.076ZM30.6167 29.5843C29.89 31.8393 28.7983 33.5126 27.27 34.7476C25.7433 35.986 23.7067 36.6393 21.1617 36.8576L20.6533 33.441C22.325 33.221 23.5617 32.8576 24.3617 32.2743C24.6517 32.0576 25.235 31.4026 25.235 31.4026L19.1983 12.0576H24.215L27.7067 26.5293L31.4167 12.0576H36.2883L30.6167 29.5843Z" fill="#725AC1"/>
</g>
<defs>
<clipPath id="clip0_4_104">
<rect width="40" height="40" fill="white" transform="translate(0 0.784302)"/>
</clipPath>
</defs>
</svg>
