<svg width="60" height="23" viewBox="0 0 60 23" fill="none" xmlns="http://www.w3.org/2000/svg">
<path d="M7.91818 0.41333V22.2889H10.4776V6.4677C10.4987 5.46663 10.4561 4.46523 10.3501 3.46958H10.4476C10.6332 3.9477 10.8676 4.40708 11.1413 4.83645L22.3913 22.2777H25.5263V0.41333H22.9782V15.7939C22.9482 16.8683 23.0082 17.9427 23.1338 19.0077H23.0757C22.7954 18.51 22.499 18.0216 22.1869 17.5433L11.2388 0.415206L7.91818 0.41333ZM31.2 0.41333V22.2889H42.8306L42.84 19.8871H33.8157V12.2989H41.7169V9.99457H33.8157V2.72895H42.2925V0.415206L31.2 0.41333ZM44.7938 0.41333V2.72708H51.0825V22.2871H53.6419V2.72708H60V0.41333H44.7938ZM1.62944 19.1633C1.4142 19.169 1.20227 19.2177 1.00615 19.3065C0.810034 19.3954 0.633704 19.5227 0.487564 19.6808C0.173198 20.0016 -0.00197101 20.4335 6.41839e-05 20.8827C-0.00286641 21.2189 0.0946207 21.5484 0.280046 21.829C0.465471 22.1095 0.730396 22.3283 1.04091 22.4574C1.35142 22.5864 1.69339 22.6199 2.02303 22.5535C2.35268 22.4871 2.65501 22.3238 2.89131 22.0846C3.21381 21.7714 3.39944 21.3327 3.39944 20.8827C3.39944 20.4327 3.21381 19.9939 2.89131 19.6808C2.73713 19.5168 2.55089 19.3862 2.34413 19.2972C2.13738 19.2082 1.91454 19.1626 1.68944 19.1633H1.63131H1.62944Z" fill="#725AC1"/>
</svg>
