<svg width="40" height="41" viewBox="0 0 40 41" fill="none" xmlns="http://www.w3.org/2000/svg">
<path d="M25.5533 14.731C26.9971 14.6876 28.3672 14.0837 29.3731 13.0471C30.3791 12.0105 30.9417 10.6229 30.9417 9.17848C30.9417 7.73405 30.3791 6.34643 29.3731 5.30986C28.3672 4.2733 26.9971 3.66931 25.5533 3.62598H14.4467C13.0029 3.66931 11.6328 4.2733 10.6268 5.30986C9.62092 6.34643 9.0583 7.73405 9.0583 9.17848C9.0583 10.6229 9.62092 12.0105 10.6268 13.0471C11.6328 14.0837 13.0029 14.6876 14.4467 14.731C12.9903 14.7562 11.602 15.3525 10.581 16.3913C9.56001 17.4302 8.98788 18.8285 8.98788 20.2851C8.98788 21.7418 9.56001 23.1401 10.581 24.179C11.602 25.2178 12.9903 25.8141 14.4467 25.8393C12.9974 25.8748 11.6194 26.4755 10.6069 27.5131C9.59446 28.5507 9.02773 29.9429 9.02773 31.3926C9.02773 32.8424 9.59446 34.2346 10.6069 35.2722C11.6194 36.3098 12.9974 36.9105 14.4467 36.946C15.9195 36.9451 17.3318 36.3595 18.3731 35.3179C19.4144 34.2763 19.9996 32.8638 20 31.391V14.731H25.5533Z" fill="#725AC1"/>
<path d="M25.5533 25.8376C28.6203 25.8376 31.1067 23.3513 31.1067 20.2843C31.1067 17.2173 28.6203 14.731 25.5533 14.731C22.4863 14.731 20 17.2173 20 20.2843C20 23.3513 22.4863 25.8376 25.5533 25.8376Z" fill="#725AC1"/>
</svg>
