<svg width="37" height="44" viewBox="0 0 37 44" fill="none" xmlns="http://www.w3.org/2000/svg">
<path fill-rule="evenodd" clip-rule="evenodd" d="M17.4149 8.15315C18.0863 8.35614 18.8011 8.36713 19.4784 8.18487L30.626 27.8896C30.1099 28.3868 29.7472 29.0216 29.581 29.7188H7.41628C7.23794 28.9868 6.84525 28.3248 6.28849 27.8174L17.4131 8.15315H17.4149ZM15.7919 7.15752C15.8237 7.19276 15.8589 7.22624 15.8924 7.25973L4.74305 26.9697C4.69048 26.9557 4.6376 26.9427 4.58446 26.931V16.9094C5.09137 16.796 5.56909 16.5783 5.98718 16.27C6.40526 15.9618 6.75454 15.5698 7.01274 15.1191C7.2699 14.6709 7.4323 14.1747 7.48989 13.6612C7.54748 13.1478 7.49904 12.6279 7.34756 12.1339L15.7919 7.15928V7.15752ZM22.0829 5.6861C22.2615 5.12537 22.306 4.53055 22.2129 3.94948C22.1197 3.36841 21.8915 2.81732 21.5465 2.34053C21.2016 1.86375 20.7496 1.47457 20.2268 1.20431C19.704 0.934051 19.1251 0.790253 18.5367 0.784483C17.9482 0.778712 17.3666 0.91113 16.8387 1.17109C16.3107 1.43104 15.8511 1.81128 15.4969 2.28121C15.1427 2.75114 14.9037 3.29765 14.7991 3.87678C14.6946 4.45591 14.7274 5.05149 14.895 5.61561L6.44532 10.5955C6.03983 10.1797 5.5434 9.86355 4.99506 9.67201C4.44673 9.48047 3.86143 9.41873 3.2852 9.49166C2.70897 9.56458 2.15751 9.77018 1.67418 10.0923C1.19085 10.4144 0.788824 10.8442 0.499716 11.348C0.210972 11.8524 0.0423718 12.4165 0.00700761 12.9967C-0.0283565 13.5768 0.0704673 14.1572 0.295805 14.693C0.521143 15.2287 0.86693 15.7053 1.30632 16.0857C1.7457 16.4661 2.26686 16.7402 2.82932 16.8865V26.9574C2.26808 27.1052 1.74837 27.3802 1.3104 27.761C0.872428 28.1418 0.527936 28.6182 0.303578 29.1535C0.0792201 29.6888 -0.0189885 30.2685 0.0165504 30.8477C0.0520893 31.427 0.220423 31.9904 0.508527 32.4942C0.797237 32.9967 1.1984 33.4256 1.68059 33.7472C2.16277 34.0687 2.71287 34.2743 3.28778 34.3477C3.86268 34.4211 4.44678 34.3603 4.99429 34.1702C5.5418 33.9801 6.03785 33.6658 6.44356 33.2519L14.8932 38.2319C14.7922 38.5782 14.7412 38.9372 14.7417 39.298C14.7434 41.3826 16.421 43.0673 18.5004 43.0673C19.102 43.066 19.6946 42.9206 20.2285 42.6433C20.7624 42.3661 21.2222 41.965 21.5693 41.4736C21.9165 40.9822 22.1409 40.4149 22.2238 39.819C22.3067 39.2231 22.2457 38.6161 22.0459 38.0486L30.4181 33.1145C30.8127 33.5605 31.3079 33.9061 31.8626 34.1227C32.4174 34.3393 33.0158 34.4207 33.6082 34.36C34.2006 34.2994 34.7701 34.0986 35.2695 33.7741C35.7689 33.4496 36.1838 33.0109 36.48 32.4942C36.7768 31.9821 36.9489 31.4073 36.9822 30.8163C37.0154 30.2253 36.909 29.6348 36.6715 29.0927C36.4339 28.5505 36.072 28.072 35.615 27.6958C35.158 27.3196 34.6188 27.0564 34.0411 26.9275V16.9183C34.6193 16.7891 35.1591 16.5261 35.617 16.1502C36.0749 15.7743 36.4382 15.2962 36.6775 14.7542C36.9169 14.2123 37.0256 13.6217 36.9949 13.0301C36.9643 12.4385 36.7951 11.8623 36.5011 11.348C36.2085 10.8399 35.801 10.4073 35.3113 10.0848C34.8216 9.76226 34.2632 9.55879 33.6808 9.49064C33.0984 9.42249 32.5082 9.49153 31.9573 9.69226C31.4063 9.89298 30.91 10.2198 30.5079 10.6466L22.0847 5.68433L22.0829 5.6861ZM21.0274 7.33726L21.1595 7.21039L29.6321 12.2027C29.494 12.6877 29.4545 13.1956 29.5159 13.6962C29.5774 14.1968 29.7385 14.68 29.9898 15.1173C30.2361 15.549 30.566 15.9272 30.9603 16.2298C31.3546 16.5324 31.8053 16.7533 32.286 16.8795V26.9592C32.2399 26.9718 32.1941 26.9853 32.1485 26.9997L21.0274 7.33726ZM29.6533 31.7576L21.2406 36.7164C20.89 36.3411 20.466 36.0421 19.9949 35.8377C19.5238 35.6334 19.0157 35.5282 18.5022 35.5287C17.4343 35.5287 16.4721 35.9727 15.7884 36.6882L7.35637 31.7188C7.37752 31.6501 7.3969 31.5814 7.41276 31.5109H29.5845C29.6057 31.5937 29.6286 31.6765 29.655 31.7576H29.6533Z" fill="#725AC1"/>
</svg>
