<svg width="35" height="40" viewBox="0 0 35 40" fill="none" xmlns="http://www.w3.org/2000/svg">
<path d="M32.7719 9.21621L19.1111 1.02305C18.6204 0.743305 18.0653 0.596191 17.5005 0.596191C16.9356 0.596191 16.3806 0.743305 15.8899 1.02305L2.22815 9.21533C1.73582 9.51703 1.32962 9.94061 1.04879 10.4451C0.76797 10.9497 0.622012 11.5181 0.625023 12.0955V28.4581C0.622069 29.0359 0.768028 29.6046 1.04883 30.1096C1.32962 30.6145 1.73579 31.0386 2.22815 31.3409L5.81057 33.4802L5.83078 33.4916C7.63957 34.4171 8.33215 34.4171 9.13459 34.4171C11.9594 34.4171 13.7146 32.589 13.7146 29.6455V13.7804C13.7162 13.5823 13.6392 13.3917 13.5005 13.2503C13.3617 13.1089 13.1726 13.0284 12.9745 13.0263H11.0075C10.8095 13.0284 10.6203 13.1089 10.4816 13.2503C10.3429 13.3917 10.2659 13.5823 10.2675 13.7804V29.6455C10.2747 29.8726 10.223 30.0978 10.1175 30.299C10.012 30.5003 9.8563 30.6709 9.66545 30.7942C9.1469 31.1106 8.39368 31.0438 7.54377 30.6053L4.11077 28.539C4.09762 28.53 4.0869 28.5179 4.07954 28.5038C4.07218 28.4897 4.06841 28.474 4.06858 28.4581V12.3267C4.06914 12.3081 4.07415 12.29 4.08317 12.2738C4.09219 12.2576 4.10497 12.2437 4.12043 12.2335L17.4657 4.05967C17.4757 4.05471 17.4867 4.05213 17.4978 4.05213C17.509 4.05213 17.5199 4.05471 17.5299 4.05967L30.8831 12.2335C30.8983 12.2446 30.9106 12.2591 30.919 12.276C30.9275 12.2928 30.9317 12.3114 30.9315 12.3302V28.4581C30.9318 28.4748 30.9284 28.4913 30.9216 28.5065C30.9147 28.5217 30.9046 28.5352 30.8919 28.546L17.5273 36.5133C17.5045 36.5212 17.4797 36.5212 17.457 36.5133L14.0442 34.4865C13.9428 34.4203 13.8258 34.3821 13.7049 34.3758C13.5841 34.3694 13.4637 34.3952 13.356 34.4505L13.3261 34.4681C12.3839 35.0262 12.1308 35.1712 11.2572 35.4894C11.1148 35.5412 10.7799 35.6651 10.7509 35.9965C10.7219 36.3278 11.0401 36.5634 11.3231 36.7277L15.8846 39.5288C16.3706 39.8199 16.9264 39.9739 17.493 39.9744H17.544C18.0964 39.9658 18.6368 39.8121 19.1111 39.5288L32.7719 31.3436C33.264 31.0403 33.6699 30.6157 33.9506 30.1104C34.2314 29.6051 34.3775 29.0361 34.375 28.4581V12.0955C34.3778 11.5183 34.2317 10.95 33.9509 10.4457C33.6701 9.94135 33.264 9.5179 32.7719 9.21621V9.21621Z" fill="#725AC1"/>
<path d="M22.0597 25.7379C18.7823 25.7379 18.0836 24.822 17.8762 23.3437C17.8528 23.1677 17.767 23.0059 17.6344 22.8879C17.5018 22.7698 17.3312 22.7032 17.1537 22.7004H15.4135C15.2173 22.7045 15.0308 22.7862 14.8948 22.9275C14.7587 23.0689 14.6842 23.2583 14.6875 23.4545C14.6875 24.7359 15.1375 28.9186 22.0633 28.9186C24.206 28.9186 25.9885 28.4177 27.2163 27.4693C28.4441 26.521 29.1015 25.1411 29.1015 23.4967C29.1015 20.1964 26.9482 19.2928 22.7075 18.7022C18.3965 18.1028 18.3965 17.7978 18.3965 17.1299C18.3965 16.6491 18.3965 15.5232 21.5131 15.5232C23.7305 15.5232 24.9179 15.8036 25.2976 17.281C25.3313 17.4448 25.4198 17.5922 25.5486 17.6988C25.6775 17.8055 25.8388 17.8649 26.006 17.8673H27.7524C27.8553 17.8662 27.9569 17.8433 28.0502 17.8C28.1436 17.7566 28.2266 17.6939 28.2938 17.6159C28.4281 17.4591 28.4951 17.2557 28.4802 17.0499C28.2543 13.9254 25.97 12.3407 21.5157 12.3407C17.4675 12.3407 15.0513 14.1644 15.0513 17.2186C15.0513 20.5673 17.5554 21.5138 21.3171 21.9058C25.7116 22.3602 25.7116 23.0229 25.7116 23.6083C25.7142 24.5206 25.3354 25.7379 22.0597 25.7379Z" fill="#725AC1"/>
</svg>
