<svg width="40" height="36" viewBox="0 0 40 36" fill="none" xmlns="http://www.w3.org/2000/svg">
<path d="M20 14.3759C21.9163 14.3759 23.4791 15.9387 23.4791 17.8922C23.4791 19.7526 21.9163 21.334 20 21.334C18.0837 21.334 16.5209 19.7526 16.5209 17.8922C16.5209 15.9387 18.0837 14.3759 20 14.3759ZM11.386 32.7759C12.5581 33.4829 15.1256 32.4038 18.0837 29.6131C17.1163 28.5154 16.1674 27.3247 15.2744 26.0782C13.7752 25.9347 12.2847 25.7111 10.8093 25.4084C9.86047 29.3898 10.214 32.1247 11.386 32.7759ZM12.707 22.0968L12.1674 21.148C11.9628 21.6875 11.7581 22.227 11.6279 22.748C12.1302 22.8596 12.6884 22.9526 13.2651 23.0456L12.707 22.0968ZM24.8744 20.6829L26.3814 17.8922L24.8744 15.1015C24.3163 14.1154 23.7209 13.241 23.1814 12.3666C22.1767 12.3108 21.1163 12.3108 20 12.3108C18.8837 12.3108 17.8233 12.3108 16.8186 12.3666C16.2791 13.241 15.6837 14.1154 15.1256 15.1015L13.6186 17.8922L15.1256 20.6829C15.6837 21.6689 16.2791 22.5433 16.8186 23.4177C17.8233 23.4736 18.8837 23.4736 20 23.4736C21.1163 23.4736 22.1767 23.4736 23.1814 23.4177C23.7209 22.5433 24.3163 21.6689 24.8744 20.6829ZM20 8.18053C19.6465 8.58983 19.2744 9.01774 18.9023 9.52006H21.0977C20.7256 9.01774 20.3535 8.58983 20 8.18053ZM20 27.6038C20.3535 27.1945 20.7256 26.7666 21.0977 26.2642H18.9023C19.2744 26.7666 19.6465 27.1945 20 27.6038ZM28.5954 3.00843C27.4419 2.30146 24.8744 3.38053 21.9163 6.17122C22.8837 7.2689 23.8326 8.4596 24.7256 9.70611C26.2512 9.85495 27.7581 10.0782 29.1907 10.3759C30.1395 6.39448 29.786 3.6596 28.5954 3.00843ZM27.293 13.6875L27.8326 14.6363C28.0372 14.0968 28.2419 13.5573 28.3721 13.0363C27.8698 12.9247 27.3116 12.8317 26.7349 12.7387L27.293 13.6875ZM29.9907 0.571224C32.7256 2.13401 33.0233 6.24564 31.8698 11.0456C36.5953 12.441 40 14.748 40 17.8922C40 21.0363 36.5953 23.3433 31.8698 24.7387C33.0233 29.5387 32.7256 33.6503 29.9907 35.2131C27.2744 36.7759 23.5721 34.9898 20 31.5852C16.4279 34.9898 12.7256 36.7759 9.9907 35.2131C7.27442 33.6503 6.97674 29.5387 8.13023 24.7387C3.40465 23.3433 0 21.0363 0 17.8922C0 14.748 3.40465 12.441 8.13023 11.0456C6.97674 6.24564 7.27442 2.13401 9.9907 0.571224C12.7256 -0.991567 16.4279 0.79448 20 4.19913C23.5721 0.79448 27.2744 -0.991567 29.9907 0.571224ZM29.4512 17.8922C30.0837 19.2875 30.6419 20.6829 31.107 22.0968C35.014 20.9247 37.2093 19.2503 37.2093 17.8922C37.2093 16.534 35.014 14.8596 31.107 13.6875C30.6419 15.1015 30.0837 16.4968 29.4512 17.8922ZM10.5488 17.8922C9.91628 16.4968 9.35814 15.1015 8.89302 13.6875C4.98605 14.8596 2.7907 16.534 2.7907 17.8922C2.7907 19.2503 4.98605 20.9247 8.89302 22.0968C9.35814 20.6829 9.91628 19.2875 10.5488 17.8922ZM27.293 22.0968L26.7349 23.0456C27.3116 22.9526 27.8698 22.8596 28.3721 22.748C28.2419 22.227 28.0372 21.6875 27.8326 21.148L27.293 22.0968ZM21.9163 29.6131C24.8744 32.4038 27.4419 33.4829 28.5954 32.7759C29.786 32.1247 30.1395 29.3898 29.1907 25.4084C27.7581 25.7061 26.2512 25.9294 24.7256 26.0782C23.8326 27.3247 22.8837 28.5154 21.9163 29.6131ZM12.707 13.6875L13.2651 12.7387C12.6884 12.8317 12.1302 12.9247 11.6279 13.0363C11.7581 13.5573 11.9628 14.0968 12.1674 14.6363L12.707 13.6875ZM18.0837 6.17122C15.1256 3.38053 12.5581 2.30146 11.386 3.00843C10.214 3.6596 9.86047 6.39448 10.8093 10.3759C12.2847 10.0732 13.7752 9.84959 15.2744 9.70611C16.1674 8.4596 17.1163 7.2689 18.0837 6.17122Z" fill="#725AC1"/>
</svg>
