<svg width="35" height="36" viewBox="0 0 35 36" fill="none" xmlns="http://www.w3.org/2000/svg">
<g clip-path="url(#clip0_4_83)">
<path d="M0 17.8922V35.3922H35V0.392212H0V17.8922ZM28.2034 16.4966C29.0425 16.6941 29.805 17.1338 30.3964 17.761C30.7158 18.1022 31.1937 18.7289 31.2342 18.8832C31.2452 18.9291 29.7248 19.9485 28.8017 20.5183C28.7678 20.5413 28.6311 20.3991 28.4823 20.176C28.0328 19.5208 27.5592 19.2364 26.8362 19.185C25.7764 19.1161 25.0928 19.6696 25.0983 20.5982C25.0927 20.8254 25.1434 21.0504 25.2459 21.2533C25.48 21.7378 25.9186 22.0277 27.2738 22.615C29.7806 23.6913 30.8514 24.4033 31.5175 25.4117C32.2634 26.5394 32.4286 28.3397 31.9277 29.6839C31.3698 31.1364 29.9906 32.1274 28.0536 32.4522C27.4553 32.5605 26.0312 32.543 25.387 32.4238C23.9805 32.1733 22.6472 31.4777 21.8269 30.5666C21.502 30.2133 20.8753 29.2847 20.9158 29.2224C20.9333 29.1994 21.0755 29.1086 21.2352 29.0167L22.5345 28.2642L23.543 27.678L23.7541 27.9908C24.0505 28.4403 24.6936 29.0561 25.0819 29.2606C26.1986 29.8535 27.7309 29.7682 28.4889 29.09C28.7963 28.8341 28.968 28.4403 28.945 28.0422C28.945 27.6375 28.8936 27.456 28.6825 27.153C28.4091 26.7658 27.8567 26.4355 26.2784 25.7519C24.4727 24.971 23.6917 24.493 22.9862 23.7241C22.5421 23.218 22.2137 22.6212 22.0238 21.9752C21.8925 21.4797 21.8586 20.2372 21.9614 19.7417C22.3322 17.9928 23.6534 16.7799 25.55 16.4211C26.1658 16.3019 27.6008 16.3467 28.2045 16.4955L28.2034 16.4966ZM19.9894 17.9611L20.0003 19.3906H15.4427V32.3396H12.2183V19.3906H7.66719V17.9896C7.66719 17.2086 7.68469 16.56 7.70656 16.5425C7.72406 16.5196 10.4923 16.5086 13.8534 16.5141L19.9719 16.5316L19.9894 17.9611Z" fill="#725AC1"/>
</g>
<defs>
<clipPath id="clip0_4_83">
<rect width="35" height="35" fill="white" transform="translate(0 0.392212)"/>
</clipPath>
</defs>
</svg>
